<?xml version="1.0" encoding="utf-8"?>
<!-- Generator: Adobe Illustrator 22.1.0, SVG Export Plug-In . SVG Version: 6.00 Build 0)  -->
<svg version="1.1" id="图层_1" xmlns="http://www.w3.org/2000/svg" xmlns:xlink="http://www.w3.org/1999/xlink" x="0px" y="0px"
	 viewBox="0 0 500 500" style="enable-background:new 0 0 500 500;" xml:space="preserve">
<style type="text/css">
	.st0{fill:#FFFFFF;}
	.st1{fill:none;}
</style>
<g>
	<path class="st0" d="M183.2,269.2c9.5-2.4,13.8-9.4,15.7-13.8c0.1-0.2-0.2-0.4-0.3-0.2c-2.4,2.4-7.8,7.2-11.4,5.9
		c-0.9-0.3-0.6-8.1,0-17.4c12.8,4.6,20.6,10.5,23.9,14c0.9,0.9,2.6,1.9,3.8,2.3c9.3,2.5,17.4-4.1,16.1-4.4
		c-14.6-3.3-30-10.8-39.1-17.4c10.1-3.4,19.3-5.9,22.8-6.5c1.2-2.3-3.2-6.9-3.8-6.7c-6.8,2.4-14.5,5.4-23,8.5c0.1-1,0.2-1.5,0.3-2.5
		c5.6-3.4,15.5-12.2,19.7-16.3c0.2-0.2,0.2-0.4,0.1-0.6c-0.9-1.2-4.1-5.7-5.1-4.1c-2.3,3.7-8.6,10.9-14.2,14.8c0.5-5.5,1-9.8,1.2-11
		c0.5-3.2-7.8-4.6-7.8-2.7c0.1,8.2-0.3,16.7-0.8,24.7c-5.6,1.9-11.2,3.7-17.3,5.3c-1,2.3,2.4,7.6,3.1,7.2c4.1-2.2,8.8-4.2,13.8-6.2
		C180,258.1,179.4,270.2,183.2,269.2z"/>
	<path class="st0" d="M259.6,242.3c-1.1,0.2-2.3,0.6-3.6,1.2l0,0c0-2.3,0.1-4.4,0.2-6.4c2.2-0.5,3.9-0.5,5.1-0.5
		c1.3,0,2.7-5.7,1.4-5.7c-1,0-3.2,0.4-5.8,0.9c0.9-5.9,2.2-9.4,1.9-10.5c-0.3-1.7-2.3-2.5-6.3-2.7c-0.2,0-0.4,0.1-0.4,0.4
		c-0.4,4-1,8.9-1.5,13.9c-2.8,0.3-5.5,0.5-7.6,0.1c-0.8-0.1-0.1,10.3,2.3,8.8c1.7-1,3.2-1.8,4.6-2.4c-0.3,2.8-0.4,5.5-0.4,7.9
		c-3.5,2.1-7.1,4.4-10.1,5.6c-0.2,0.1-0.4,0.4-0.2,0.6c1,1.8,3.3,3.4,4.3,4.1c0.3,0.2,0.7,0.2,0.9-0.1c2.7-2.3,16.8-14.3,17-14.4
		C261.3,242.8,260.5,242.1,259.6,242.3z"/>
	<path class="st0" d="M305.9,246.5c-1.1-1.5-1.2,20.4-7.6,12.7c-2.9-3.5-5.4-7.3-7.4-11.1c4.1-5.2,5.8-11,4.9-11.3
		c-2.5-0.8-4.2-3.4-4.8-2.1c-0.1,2.3-0.9,5.2-2.5,8.4c-1.7-4-3-8-4-11.9c3.3-0.4,5.2-0.2,5.8-0.1c0.1,0,0.2-0.1,0.3-0.2
		c0.2-0.8,0.9-3.6-1.7-5.8c-0.6-0.5-2.6-0.1-5.5,0.7c-1.2-6.1-1.7-11.8-2-16.4c0-0.1,0-0.2-0.1-0.2c-1-0.5-4.3-1.2-6.2,1
		c0,0.1-0.1,0.1-0.1,0.2c0.5,5.8,1.4,11.5,2.7,17c-3.7,1.1-7.9,2.2-12.2,3.1c-0.3,0.1-0.5,0.3-0.5,0.6c0.6,7.7-4,21.2-13.4,26.8
		c-0.2,0.1-0.1,0.5,0.1,0.5l6.1-0.2c2.9-0.1,3.1-0.6,5.6-4.4c0,0,0,0,0-0.1c3,2.2,7.5,4.7,9.2,5.5c0.3,0.1,0.6,0,0.8-0.3
		c1.4-2.8,6.2-15.1,7-17.5c0.1-0.2,0-0.5-0.1-0.6c-2.4-3.2-6.7-1.7-11.2-1c0.2-0.8,0.5-1.6,0.7-2.4l0,0c0.4-1.5,0.9-2.5,2.4-3.1
		c2.5-0.9,4.7-1.6,6.7-2.1c1.6,5.9,3.5,11.4,5.9,16.4c-2.1,2.5-4.7,4.9-8,7.3c-0.1,0.1-0.1,0.4,0.1,0.3c3.8-0.1,7.1-1.7,9.8-3.8
		c4.8,8.8,10.8,15.2,17.7,17.6c3.9,1.3,4.4-14.6,2.6-21.2C306.9,248.6,306.4,247.2,305.9,246.5z M272.4,243.3c0.4,0.1,0.7,0.5,0.7,1
		c-0.1,2.2-1.5,8.6-3.6,8.5c-2-0.1-3.7-0.7-4.8-1.2c0.7-1.5,1.6-3.6,2.4-5.9c0-0.1,0.1-0.1,0.1-0.3
		C267.9,243.5,270.4,242.8,272.4,243.3z"/>
	<path class="st0" d="M289.1,222.9c5.7,1.4,8.1,0.1,8.9-0.6c0.2-0.2,0.2-0.5,0-0.6c-1.4-1.2-5.5-4.8-7.6-6.8c-0.2-0.2-0.4-0.1-0.6,0
		c-2.6,2.9-1.7,6.5-1.2,7.7C288.7,222.7,288.9,222.9,289.1,222.9z"/>
	<path class="st0" d="M336.9,227.7c4.6-5.1-2.1-10.1-3.9-13.4c-0.3-0.6-1.1-0.6-1.4,0c-1.5,2.3-2.8,5.7-3,7.8
		C328.1,226.6,336,228.7,336.9,227.7z"/>
	<path class="st0" d="M327.6,264.9c8.4-6.9,11.1-18,10.8-21.5c0-0.2-0.2-0.2-0.3,0c-1.6,3.7-8.5,17.4-10.1,11.2
		c-2.2-8.4,4.1-12.9,6.6-14c0.8-4.3-2.4-4.9-5.3-7.4c-0.2-0.1-0.4-0.1-0.5,0c-7.3,6.3-15.2,2.3-16.6,6.5c0.5,1.5,1.4,4.7,2.5,5.6
		c0.2,0.1,0.4,0.1,0.6,0c2.8-2.6,7.4-4.4,9.5-2.1c0.9,1-4.6,15.2,1.9,21.7C326.9,265.1,327.3,265.1,327.6,264.9z"/>
	<path class="st0" d="M336.9,263.9c18.5-4.7,30.3-0.4,36.6,0c4.6,0.3,0.9-9.1,0-8.9c-5,1.3-9.5,1-14.9,1.1c0.1-2.5,0.3-5.2,0.5-8
		c0.2-4.6,12.8-3.5,13-6c0.2-2.7-0.9-5.2-1.3-6.1c-0.1-0.2-0.4-0.3-0.6-0.2c-6.8,3.4-10.3,4.3-10,1.3c0.3-2.3,0.6-4.6,1-6.6
		c0.4-1.8,0.7-2.1,2.4-2.5l0,0c0.8-0.1,1.6-0.3,2.2-0.4c4.4-0.9,5.2-7.2,3.3-6.9c-14.8,2.5-22.3,2.4-24.4,3.4
		c-1.4,0.7-0.1,7.4,0.5,7.2c0.9-0.4,2.3-0.8,3.9-1.1c2.2-0.3,3.7-0.5,3.7,1.8c-0.4,11.3-1.3,19.7-1.8,24.4c-1.3,0.1-3.3,0.3-4.7,0.6
		c-0.5-4-0.1-9.8,0.6-13.4c0.6-3.5-1-3.2-3.7-3.1c-0.2,0-0.4,0.1-0.4,0.3c-0.9,3.4-1.8,12.7-1.8,17.5c-1.7,0.4-3.4,1-5.3,1.6
		C334.9,260.2,336.4,264.1,336.9,263.9z"/>
	<path class="st0" d="M449.8,255.9c-13.9-4.5-24.2-12.3-30.6-18.4c4.9-1,9-1.4,10.7-0.4c2.9,1.4,3.7-3.9,0.9-6.4
		c-1.2,0.4-7.4,2-14.6,3.7c-0.7-0.8-1.4-1.5-1.9-2.2c4.6-1.1,8.9-2.2,9.9-2.7c3.8-1.7,0.9-5-0.3-5c-2.1,0.8-4.5,1.5-7,2.1
		c3.5-2,15-8.6,15.4-9.5c0.5-1.1-1.2-2.8-3.1-3.3c-0.1,0-0.3,0-0.3,0.1L416,224.2c0.3-1.4,2.2-12.8,2.8-13.7c0.1-0.1,0.1-0.3,0-0.4
		c-1.3-1.5-4.7-2.3-6.5-0.7c-0.1,0.1-0.1,0.2-0.1,0.3c0.3,2,0.3,5.3-0.2,9.3c-5.3,0.9-12.2,2.9-12.5,4.9l2.1,3.9
		c0.1,0.2,0.3,0.3,0.5,0.1c2.4-1.6,6-3.3,9.2-4.9c-0.3,1.6-0.8,3.3-1.4,5.1c-4.1,0.9-8,1.7-10.8,2.7c-0.3,0.1-0.4,0.4-0.3,0.7
		c0.7,1.6,0.9,5,2.9,4c0.8-0.4,3.2-1.1,6-1.8c-0.5,1-1,2-1.5,2.9c-5.7,1.3-10.9,2.5-13.6,3c-0.3,0-0.4,0.3-0.5,0.5
		c-0.1,1.3-0.1,4.8,2.5,4.2c1.8-0.5,4.8-1.5,8.3-2.6c-4.4,5.9-10.7,11.3-19.6,15c-0.3,0.1-0.4,0.6-0.2,0.8c1.3,1.3,3.9,1.9,9.9-0.9
		c3.2-1.5,5.9-3.4,8.3-5.5c0.1,1.2,0.6,2.3,1.2,2.4c1.3,0.2,3-0.2,4.8-0.9c-1.9,4.1-4.6,7.1-11.9,12.3c-1.7,1.2,2.3,1.7,3.1,1.5
		c2.6-0.6,5.1-1.8,7.3-3.4c2.9,3.1,9.1,7.1,11.4,7.1c2.7-2,7.1-15.3,9.9-20.3c1.2,1.4,2.2,2.8,3.1,4.3c0.8,1.5,2.3,2.5,3.9,2.7
		c3.5,0.4,8.7,0.9,12.4,0.8C450.1,257.8,450.3,256.1,449.8,255.9z M410.6,262.8c-1-0.3-1.9-0.6-2.8-1.2c3.1-2.9,5.5-6.9,6.8-11.7
		c2.3-0.8,4.1-1,4.7,0.5C420.8,253.9,416.5,264.6,410.6,262.8z M405.2,247.4c2-2.4,3.7-5,5.2-7.6c3.1,0.1,7.8,2.4,12.2,6
		C415.1,243.7,409.7,245.8,405.2,247.4z"/>
	<path class="st0" d="M181.3,287.1h3.5v0.7c0,0.9-0.3,1.6-0.8,2.2c-0.7,0.6-1.5,1-2.6,1c-0.5,0-0.9-0.1-1.3-0.2
		c-0.4-0.1-0.8-0.4-1.1-0.6c-0.2-0.2-0.4-0.4-0.5-0.6s-0.2-0.5-0.3-0.8s-0.1-0.7-0.2-1.1c0-0.4,0-1,0-1.7c0-1.4,0.1-2.4,0.2-2.9
		c0.1-0.5,0.4-1,0.8-1.4c0.3-0.3,0.6-0.5,1.1-0.6c0.4-0.2,0.9-0.2,1.3-0.2c0.6,0,1.1,0.1,1.6,0.3c0.5,0.2,0.8,0.5,1.1,0.8
		c0.3,0.4,0.5,0.8,0.7,1.3l0,0h2.6v-0.1c-0.2-0.8-0.5-1.6-1-2.2c-0.5-0.7-1.2-1.2-2-1.6s-1.8-0.6-3-0.6c-1.7,0-3.2,0.5-4.4,1.5
		c-0.4,0.3-0.7,0.7-0.9,1.1s-0.4,0.8-0.5,1.2c-0.1,0.4-0.2,0.9-0.2,1.4s0,1.2,0,2c0,1.1,0,2,0.1,2.6s0.2,1.2,0.4,1.7s0.6,1,1.1,1.4
		c0.4,0.3,0.8,0.6,1.3,0.8c0.5,0.2,1,0.4,1.5,0.5s1.1,0.2,1.6,0.2c1.8,0,3.4-0.5,4.6-1.6c0.5-0.5,0.9-1.1,1.2-1.7
		c0.2-0.6,0.3-1.4,0.3-2.3v-2.2h-6.1v1.7H181.3z"/>
	<path class="st0" d="M200.9,285.4c0.6-0.7,0.9-1.5,0.9-2.4c0-0.8-0.2-1.5-0.6-2.1c-0.4-0.6-1-1.1-1.8-1.5s-1.7-0.5-2.7-0.5h-6.4
		V293h2.6v-6h3l3.5,5.9h3l-3.8-6.2C199.5,286.4,200.3,286,200.9,285.4z M196.5,285.1h-3.6v-4.3h3.6c0.8,0,1.5,0.2,2,0.6
		s0.7,0.9,0.7,1.6c0,0.6-0.3,1.2-0.7,1.5C198,284.9,197.3,285.1,196.5,285.1z"/>
	<polygon class="st0" points="204.6,292.9 215.2,292.9 215.2,290.9 207.2,290.9 207.2,286.8 214.1,286.8 214.1,284.8 207.2,284.8 
		207.2,280.8 215.2,280.8 215.2,278.8 204.6,278.8 	"/>
	<polygon class="st0" points="222.7,278.8 216.7,292.9 219.4,292.9 223.8,282.1 228.1,292.9 230.9,292.9 224.8,278.8 	"/>
	<polygon class="st0" points="272.8,278.8 266.7,292.9 269.5,292.9 273.9,282.1 278.1,292.9 280.9,292.9 274.8,278.8 	"/>
	<polygon class="st0" points="230.7,280.8 235.3,280.8 235.3,292.9 237.9,292.9 237.9,280.8 242.4,280.8 242.4,278.8 230.7,278.8 	
		"/>
	<polygon class="st0" points="265.3,278.8 262.4,288.6 259.2,278.8 257.1,278.8 253.8,288.6 251,278.8 248.3,278.8 252.6,292.9 
		254.8,292.9 258.1,283.2 261.4,292.9 263.7,292.9 268,278.8 	"/>
	<polygon class="st0" points="285.7,278.8 283.1,278.8 283.1,292.9 293.6,292.9 293.6,290.9 285.7,290.9 	"/>
	<polygon class="st0" points="298.5,278.8 295.9,278.8 295.9,292.9 306.4,292.9 306.4,290.9 298.5,290.9 	"/>
	<path class="st0" d="M322.8,285.9c-0.3-0.3-0.8-0.5-1.2-0.7c-0.5-0.2-1.1-0.3-1.9-0.4l-1.9-0.2c-0.4,0-0.7-0.1-1-0.2
		s-0.6-0.2-0.8-0.4c-0.4-0.3-0.6-0.7-0.6-1.3c0-0.4,0.1-0.8,0.3-1.1c0.2-0.3,0.6-0.6,1-0.8c0.4-0.2,1-0.3,1.6-0.3
		c0.5,0,0.9,0,1.3,0.1s0.8,0.2,1.2,0.3c0.4,0.2,0.7,0.4,1,0.6l0,0l1.7-1.4h-0.1c-0.7-0.6-1.5-1-2.3-1.2c-0.8-0.3-1.8-0.4-2.9-0.4
		s-2.1,0.2-2.9,0.5s-1.5,0.8-1.9,1.5c-0.4,0.6-0.7,1.4-0.7,2.2c0,1.2,0.4,2.1,1.2,2.7c0.7,0.6,1.8,1,3.1,1.1l1.9,0.2
		c0.5,0.1,0.8,0.1,1.1,0.2c0.3,0.1,0.5,0.2,0.7,0.4c0.4,0.3,0.6,0.8,0.6,1.4c0,0.7-0.3,1.2-0.9,1.5c-0.6,0.4-1.4,0.6-2.5,0.6
		c-0.6,0-1.1,0-1.6-0.1s-1-0.2-1.4-0.4c-0.4-0.2-0.8-0.5-1.2-0.8l0,0l-1.8,1.5l0,0c0.8,0.7,1.6,1.1,2.6,1.4c0.9,0.3,2,0.4,3.3,0.4
		c0.9,0,1.7-0.1,2.4-0.3c0.7-0.2,1.4-0.5,1.9-0.8c0.5-0.4,1-0.8,1.3-1.3s0.4-1.1,0.4-1.7C324.1,287.6,323.7,286.6,322.8,285.9z"/>
	<polygon class="st0" points="326.8,292.9 337.4,292.9 337.4,290.9 329.4,290.9 329.4,286.8 336.2,286.8 336.2,284.8 329.4,284.8 
		329.4,280.8 337.4,280.8 337.4,278.8 326.8,278.8 	"/>
	<path class="st0" d="M342.1,282.9c0.1-0.3,0.2-0.6,0.3-0.8c0.1-0.2,0.3-0.4,0.5-0.6c0.3-0.3,0.6-0.5,1.1-0.6
		c0.4-0.1,0.9-0.2,1.3-0.2c0.9,0,1.6,0.2,2.1,0.6c0.6,0.4,0.9,1,1.1,1.7l0,0h2.7v-0.1c-0.3-1.4-1-2.5-2-3.2s-2.4-1.1-3.9-1.1
		c-0.9,0-1.7,0.1-2.4,0.4c-0.7,0.3-1.4,0.6-2,1.1c-0.4,0.3-0.7,0.7-0.9,1.1c-0.2,0.4-0.4,0.8-0.5,1.2c-0.1,0.4-0.2,0.9-0.2,1.4
		s0,1.2,0,2c0,1.1,0,2,0.1,2.6s0.2,1.2,0.4,1.7c0.2,0.5,0.6,1,1.1,1.4c0.4,0.3,0.8,0.6,1.3,0.8c0.5,0.2,1,0.4,1.5,0.5
		s1.1,0.2,1.6,0.2c0.7,0,1.5-0.1,2.1-0.3c0.7-0.2,1.3-0.5,1.8-0.8c0.5-0.4,0.9-0.8,1.3-1.4c0.4-0.5,0.6-1.2,0.7-1.9v-0.1h-2.6l0,0
		c-0.1,0.5-0.3,0.9-0.6,1.2c-0.3,0.4-0.7,0.6-1.1,0.8c-0.4,0.2-1,0.3-1.5,0.3s-0.9-0.1-1.3-0.2s-0.8-0.4-1.1-0.6
		c-0.2-0.2-0.4-0.4-0.5-0.6s-0.2-0.5-0.3-0.8c-0.1-0.3-0.1-0.7-0.2-1.1c0-0.4,0-1,0-1.7s0-1.3,0-1.8
		C342,283.6,342.1,283.3,342.1,282.9z"/>
	<path class="st0" d="M363,288c0,0.6-0.1,1.1-0.4,1.6c-0.3,0.4-0.7,0.8-1.2,1s-1.1,0.4-1.8,0.4c-0.7,0-1.3-0.1-1.8-0.4
		c-0.5-0.2-0.9-0.6-1.2-1c-0.3-0.4-0.4-1-0.4-1.6v-9.2h-2.6v9.3c0,1,0.3,1.8,0.8,2.6c0.5,0.7,1.2,1.3,2.1,1.7c0.9,0.4,1.9,0.6,3,0.6
		s2.1-0.2,3-0.6s1.6-1,2.1-1.7s0.8-1.6,0.8-2.6v-9.3H363V288z"/>
	<path class="st0" d="M379.3,285.4c0.6-0.7,0.9-1.5,0.9-2.4c0-0.8-0.2-1.5-0.6-2.1s-1-1.1-1.8-1.5s-1.7-0.5-2.7-0.5h-6.4V293h2.6v-6
		h3l3.5,5.9h3l-3.8-6.2C378,286.4,378.7,286,379.3,285.4z M374.9,285.1h-3.6v-4.3h3.6c0.8,0,1.5,0.2,2,0.6s0.7,0.9,0.7,1.6
		c0,0.6-0.3,1.2-0.7,1.5C376.4,284.9,375.7,285.1,374.9,285.1z"/>
	<rect x="383.3" y="278.8" class="st0" width="2.6" height="14.1"/>
	<polygon class="st0" points="388.5,280.8 393,280.8 393,292.9 395.6,292.9 395.6,280.8 400.1,280.8 400.1,278.8 388.5,278.8 	"/>
	<rect x="402.5" y="278.8" class="st0" width="2.6" height="14.1"/>
	<polygon class="st0" points="408.6,292.9 419.2,292.9 419.2,290.9 411.2,290.9 411.2,286.8 418,286.8 418,284.8 411.2,284.8 
		411.2,280.8 419.2,280.8 419.2,278.8 408.6,278.8 	"/>
	<path class="st0" d="M431.2,285.9c-0.3-0.3-0.8-0.5-1.2-0.7c-0.5-0.2-1.1-0.3-1.9-0.4l-1.9-0.2c-0.4,0-0.7-0.1-1-0.2
		s-0.6-0.2-0.8-0.4c-0.4-0.3-0.6-0.7-0.6-1.3c0-0.4,0.1-0.8,0.3-1.1c0.2-0.3,0.6-0.6,1-0.8c0.4-0.2,1-0.3,1.6-0.3
		c0.5,0,0.9,0,1.3,0.1s0.8,0.2,1.2,0.3c0.4,0.2,0.7,0.4,1,0.6l0,0l1.7-1.4h-0.1c-0.7-0.6-1.5-1-2.3-1.2c-0.8-0.3-1.8-0.4-2.9-0.4
		s-2.1,0.2-2.9,0.5s-1.5,0.8-1.9,1.5c-0.4,0.6-0.7,1.4-0.7,2.2c0,1.2,0.4,2.1,1.2,2.7c0.7,0.6,1.8,1,3.1,1.1l1.9,0.2
		c0.5,0.1,0.8,0.1,1.1,0.2c0.3,0.1,0.5,0.2,0.7,0.4c0.4,0.3,0.6,0.8,0.6,1.4c0,0.7-0.3,1.2-0.9,1.5c-0.6,0.4-1.4,0.6-2.5,0.6
		c-0.6,0-1.1,0-1.6-0.1s-1-0.2-1.4-0.4c-0.4-0.2-0.8-0.5-1.2-0.8l0,0l-1.8,1.5l0,0c0.8,0.7,1.6,1.1,2.6,1.4c0.9,0.3,2,0.4,3.3,0.4
		c0.9,0,1.7-0.1,2.4-0.3c0.7-0.2,1.4-0.5,1.9-0.8c0.5-0.4,1-0.8,1.3-1.3s0.4-1.1,0.4-1.7C432.6,287.6,432.1,286.6,431.2,285.9z"/>
	<path class="st0" d="M135.9,297.4c3-1.5,6-3.1,9-4.9v-3.9c-5.5,3.4-11,6.5-16.5,8.8H135.9z"/>
	<path class="st0" d="M97.5,245.1c-11.3,2.9-12.7-6-6.4-16c1-1.2,2.1-2.5,3.3-3.6c-4.7,5.1-6,10.7-4.8,13.4
		c5.9,13.8,49.7-25.6,55.3-36.3H50v94.8h45.1c-0.8-0.7-1.6-1.4-2.3-2.2c-1-1.3-2.3-3.2-3.2-4.6l-0.2-0.3c2.6,3.8,6.1,6.1,10.2,7.1
		h12.3c10-1.9,21.7-7.6,33-14.8v-4.3c-22.8,15.5-47.5,25.2-57.9,7.8l-1.8-3.9l-0.6-1.6c7.8,20,35.4,8.7,60.4-8.4v-5.4
		C119.6,285,90.8,298,83.1,276l-0.7-2.7l-0.4-2c-0.1-0.4-0.2-0.9-0.3-1.3l0.3,1.3c0,0.1,0.1,0.2,0.1,0.4c5.8,21.9,36.5,8.2,63-10.8
		v-4.7c-28,21.3-60.4,35.7-64,8.7l-0.1-1.1c-0.1-1.5-0.1-3.3-0.1-5c0,1.1,0,2.3,0.2,3.3c3,24.5,36.1,9.2,64.1-12.6v-5.3
		c-0.4,0.4-0.9,0.7-1.3,1.1c-39,31.6-65.3,34.4-62.4,6.8l0.2-1.4c0.2-1.2,0.4-2.3,0.7-3.5c-0.3,1.8-1,5.6-0.4,9.2
		c3.6,22,37.3,3.8,63.2-18.3v-5.4c-6.5,5.8-14.1,11.9-22.2,17.2c-32.9,21.7-43.6,12-39.7-6.2c0.5-1.4,1-2.8,1.6-4.2
		c-1.8,6-1.5,9.7-0.9,11.8c5,17.3,39-4.4,61.1-24.8v-5.3c-10.5,10.3-25.3,22.6-39.3,29.1c-19.3,8.9-24.2-0.4-19.2-14.2
		c0.7-1.3,1.6-2.7,2.5-4c-2.7,5.5-3.4,9.9-2.2,13.1c5.7,14.5,40.9-12.4,58.3-30.4v-5.2C135,220.9,113.5,241,97.5,245.1z"/>
</g>
<rect id="XMLID_2_" x="50" y="202.6" class="st1" width="94.8" height="94.8"/>
</svg>
